# xmcd CD database file
#
# Track frame offsets:
#	150
#	17263
#	36138
#
# Disc length: 638 seconds
#
# Revision: 0
# Processed by: cddbd v1.5.1PL0 Copyright (c) Steve Scherf et al.
# Submitted via: CDex 1.51
#
DISCID=14027c03
DTITLE=ASIAN KUNG-FU GENERATION - ループ＆ループ
DYEAR=2004
DGENRE=Rock
TTITLE0=ループ＆ループ
TTITLE1=エントランス
TTITLE2=羅針盤
EXTD=YEAR: 2004
EXTT0=
EXTT1=
EXTT2=
PLAYORDER=
